<?xml version="1.0" encoding="UTF-8" standalone="no"?>
<svg
   width="79.999733"
   height="39.999844"
   version="1.1"
   id="svg32"
   sodipodi:docname="HPI-Schul-Cloud_Wort-Bildmarke-Banner_transparent.3c41d8e.svg"
   inkscape:version="1.1 (c4e8f9ed74, 2021-05-24)"
   xmlns:inkscape="http://www.inkscape.org/namespaces/inkscape"
   xmlns:sodipodi="http://sodipodi.sourceforge.net/DTD/sodipodi-0.dtd"
   xmlns:xlink="http://www.w3.org/1999/xlink"
   xmlns="http://www.w3.org/2000/svg"
   xmlns:svg="http://www.w3.org/2000/svg">
  <sodipodi:namedview
     id="namedview34"
     pagecolor="#ffffff"
     bordercolor="#666666"
     borderopacity="1.0"
     inkscape:pageshadow="2"
     inkscape:pageopacity="0.0"
     inkscape:pagecheckerboard="0"
     showgrid="false"
     inkscape:zoom="8.5058823"
     inkscape:cx="13.755187"
     inkscape:cy="29.626556"
     inkscape:window-width="2560"
     inkscape:window-height="1358"
     inkscape:window-x="1920"
     inkscape:window-y="45"
     inkscape:window-maximized="1"
     inkscape:current-layer="svg32" />
  <defs
     id="defs13">
    <linearGradient
       id="a"
       x1="0.049869999"
       x2="0.95077002"
       y1="0.51010001"
       y2="0.48988998">
      <stop
         offset="0%"
         stop-color="#B1063A"
         id="stop2" />
      <stop
         offset="100%"
         stop-color="#F6A800"
         id="stop4" />
    </linearGradient>
    <linearGradient
       id="c"
       x1="0.00018781134"
       y1="28.284168"
       y2="28.284168"
       gradientTransform="scale(1.414214,0.70710656)"
       x2="56.568523"
       gradientUnits="userSpaceOnUse">
      <stop
         offset="0%"
         stop-color="#B1053A"
         id="stop7" />
      <stop
         offset="100%"
         stop-color="#F6A800"
         id="stop9" />
    </linearGradient>
    <path
       id="b"
       d="M 51.159,0 C 50.945,0.002 50.731,0.006 50.517,0.014 41.922,0.314 33.427,5.305 32.127,13.391 23.832,10.097 16.036,14.49 16.036,21.977 0.745,18.981 -3.352,32.558 2.643,37.051 c 4.198,3.593 9.595,2.894 16.492,2.894 H 64.608 C 73.103,39.945 80,34.255 80,27.167 80,23.651 78.226,20.361 75.253,18.018 l -8.959,8.948 c -0.212,0.213 -0.707,0.565 -1.062,0.634 l -10.06,4.07 c -0.243,0.12 -0.486,0.152 -0.723,0.145 -1.247,1.098 -3.935,2.18 -4.635,2.284 -2.665,0.395 -4.317,-1.311 -6.068,-3.121 -1.125,-1.162 -2.29,-2.365 -3.743,-2.944 a 3.495,3.495 0 0 0 -1.305,-0.261 c -1.903,0 -3.503,1.648 -4.945,3.132 -0.55,0.566 -1.069,1.099 -1.571,1.507 -1.521,1.238 -3.031,1.806 -4.463,1.707 -1.665,-0.12 -2.879,-1.258 -3.888,-2.314 l -0.183,-0.194 c -1.099,-1.159 -2.342,-2.472 -4.118,-1.808 -0.895,0.337 -1.688,0.996 -2.195,1.49 -0.14,0.136 -0.27,0.282 -0.402,0.43 -0.322,0.36 -0.627,0.7 -1.054,0.892 -0.329,0.146 -0.735,0.135 -1.029,-0.032 a 0.814,0.814 0 0 1 -0.421,-0.639 c -0.066,-0.551 0.389,-0.919 0.826,-1.275 0.073,-0.059 0.143,-0.116 0.21,-0.174 l 0.362,-0.312 c 1.045,-0.905 2.126,-1.841 3.49,-2.228 1.871,-0.525 3.48,0.421 4.501,1.311 0.328,0.285 0.649,0.627 0.988,0.991 0.897,0.962 1.826,1.955 3.098,2.106 1.899,0.226 3.528,-1.447 4.605,-2.552 l 0.118,-0.122 c 1.271,-1.304 2.47,-2.537 4.188,-3.214 1.619,-0.637 3.362,-0.434 5.035,0.59 1.022,0.628 1.854,1.503 2.659,2.349 0.514,0.542 1.046,1.103 1.629,1.6 1.702,1.451 3.307,1.694 5.051,0.765 0.227,-0.121 0.507,-0.334 0.834,-0.581 0.29,-0.219 0.614,-0.461 0.943,-0.67 a 1.502,1.502 0 0 1 0.139,-0.923 L 57.18,19.557 c 0.069,-0.355 0.422,-0.849 0.633,-1.061 L 67.594,8.727 C 64.13,2.7 57.841,0.048 51.503,0 Z M 60.5,19.344 a 2.477,2.477 0 0 1 -1.979,0.705 l -1.836,5.225 2.825,2.822 5.23,-1.835 a 2.467,2.467 0 0 1 0.705,-1.977 l 7.681,-7.671 a 16.243,16.243 0 0 0 -1.864,-0.856 l -7.177,7.168 c -0.508,0.507 -1.099,0.847 -1.667,0.958 -0.494,0.095 -0.901,0.005 -1.16,-0.251 -0.584,-0.584 -0.267,-1.852 0.707,-2.825 l 7.513,-7.505 a 20.272,20.272 0 0 0 -0.73,-2.197 z" />
  </defs>
  <g
     fill="none"
     fill-rule="evenodd"
     id="g30"
     transform="translate(-0.14529061,0.021472)">
    <g
       transform="translate(71,10)"
       id="g28">
      <mask
         id="d"
         fill="#ffffff">
        <use
           xlink:href="#b"
           id="use23"
           x="0"
           y="0"
           width="100%"
           height="100%" />
      </mask>
      <path
         fill="url(#c)"
         d="M 51.159,0 C 50.945,0.002 50.731,0.006 50.517,0.014 41.922,0.314 33.427,5.305 32.127,13.391 23.832,10.097 16.036,14.49 16.036,21.977 0.745,18.981 -3.352,32.558 2.643,37.051 c 4.198,3.593 9.595,2.894 16.492,2.894 H 64.608 C 73.103,39.945 80,34.255 80,27.167 80,23.651 78.226,20.361 75.253,18.018 l -8.959,8.948 c -0.212,0.213 -0.707,0.565 -1.062,0.634 l -10.06,4.07 c -0.243,0.12 -0.486,0.152 -0.723,0.145 -1.247,1.098 -3.935,2.18 -4.635,2.284 -2.665,0.395 -4.317,-1.311 -6.068,-3.121 -1.125,-1.162 -2.29,-2.365 -3.743,-2.944 a 3.495,3.495 0 0 0 -1.305,-0.261 c -1.903,0 -3.503,1.648 -4.945,3.132 -0.55,0.566 -1.069,1.099 -1.571,1.507 -1.521,1.238 -3.031,1.806 -4.463,1.707 -1.665,-0.12 -2.879,-1.258 -3.888,-2.314 l -0.183,-0.194 c -1.099,-1.159 -2.342,-2.472 -4.118,-1.808 -0.895,0.337 -1.688,0.996 -2.195,1.49 -0.14,0.136 -0.27,0.282 -0.402,0.43 -0.322,0.36 -0.627,0.7 -1.054,0.892 -0.329,0.146 -0.735,0.135 -1.029,-0.032 a 0.814,0.814 0 0 1 -0.421,-0.639 c -0.066,-0.551 0.389,-0.919 0.826,-1.275 0.073,-0.059 0.143,-0.116 0.21,-0.174 l 0.362,-0.312 c 1.045,-0.905 2.126,-1.841 3.49,-2.228 1.871,-0.525 3.48,0.421 4.501,1.311 0.328,0.285 0.649,0.627 0.988,0.991 0.897,0.962 1.826,1.955 3.098,2.106 1.899,0.226 3.528,-1.447 4.605,-2.552 l 0.118,-0.122 c 1.271,-1.304 2.47,-2.537 4.188,-3.214 1.619,-0.637 3.362,-0.434 5.035,0.59 1.022,0.628 1.854,1.503 2.659,2.349 0.514,0.542 1.046,1.103 1.629,1.6 1.702,1.451 3.307,1.694 5.051,0.765 0.227,-0.121 0.507,-0.334 0.834,-0.581 0.29,-0.219 0.614,-0.461 0.943,-0.67 a 1.502,1.502 0 0 1 0.139,-0.923 L 57.18,19.557 c 0.069,-0.355 0.422,-0.849 0.633,-1.061 L 67.594,8.727 C 64.13,2.7 57.841,0.048 51.503,0 Z M 60.5,19.344 a 2.477,2.477 0 0 1 -1.979,0.705 l -1.836,5.225 2.825,2.822 5.23,-1.835 a 2.467,2.467 0 0 1 0.705,-1.977 l 7.681,-7.671 a 16.243,16.243 0 0 0 -1.864,-0.856 l -7.177,7.168 c -0.508,0.507 -1.099,0.847 -1.667,0.958 -0.494,0.095 -0.901,0.005 -1.16,-0.251 -0.584,-0.584 -0.267,-1.852 0.707,-2.825 l 7.513,-7.505 a 20.272,20.272 0 0 0 -0.73,-2.197 z"
         mask="url(#d)"
         id="path26"
         style="fill:url(#c)"
         transform="translate(-70.854975,-10.021472)" />
    </g>
  </g>
</svg>
