<?xml version="1.0" encoding="UTF-8" standalone="no"?>
<svg
   fill="none"
   height="280"
   viewBox="0 0 302.71704 280"
   width="302.71704"
   version="1.1"
   id="svg32"
   sodipodi:docname="udemy.svg"
   inkscape:version="1.1 (c4e8f9ed74, 2021-05-24)"
   xmlns:inkscape="http://www.inkscape.org/namespaces/inkscape"
   xmlns:sodipodi="http://sodipodi.sourceforge.net/DTD/sodipodi-0.dtd"
   xmlns="http://www.w3.org/2000/svg"
   xmlns:svg="http://www.w3.org/2000/svg">
  <defs
     id="defs36" />
  <sodipodi:namedview
     id="namedview34"
     pagecolor="#ffffff"
     bordercolor="#666666"
     borderopacity="1.0"
     inkscape:pageshadow="2"
     inkscape:pageopacity="0.0"
     inkscape:pagecheckerboard="0"
     showgrid="false"
     inkscape:zoom="1.50625"
     inkscape:cx="394.35685"
     inkscape:cy="140.08299"
     inkscape:window-width="2560"
     inkscape:window-height="1358"
     inkscape:window-x="1920"
     inkscape:window-y="45"
     inkscape:window-maximized="1"
     inkscape:current-layer="svg32" />
  <path
     d="M 0,0 H 302.71705 V 280 H 0 Z"
     fill="#f2f3f5"
     id="path2"
     style="stroke-width:0.794142" />
  <path
     d="m 58.06813,112.115 -21.75,-12.5574 -21.747,12.5574 V 99.5576 L 36.32113,87 l 21.751,12.5576 v 12.5574 z"
     fill="#a435f0"
     id="path4" />
  <g
     fill="#000000"
     id="g16"
     transform="translate(-85.42887)">
    <path
       d="m 100,122.659 h 11.393 v 27.68 c 0,7.154 5.34,10.638 10.357,10.638 5.056,0 10.358,-3.579 10.358,-10.733 v -27.585 h 11.393 v 28.339 c 0,6.59 -2.07,11.674 -6.214,15.158 -4.144,3.484 -9.323,5.179 -15.631,5.179 -6.309,0 -11.488,-1.695 -15.537,-5.179 C 102.07,162.672 100,157.777 100,151.279 Z"
       id="path6" />
    <path
       d="m 241.997,157.061 c -3.449,3.07 -7.379,4.576 -11.86,4.576 -8.168,0 -13.652,-4.656 -14.27,-11.867 h 36.813 c 0,0 0.243,-2.33 0.243,-4.515 0,-6.779 -2.165,-12.428 -6.59,-17.042 -4.329,-4.614 -9.978,-6.874 -16.852,-6.874 -7.249,0 -13.182,2.26 -17.891,6.874 -4.614,4.614 -6.968,10.638 -6.968,18.171 v 0.376 c 0,7.438 2.354,13.368 6.968,17.796 4.614,4.424 10.733,6.684 18.172,6.684 8.649,0 15.533,-3.411 20.697,-9.295 z m -21.653,-23.104 c 2.541,-1.979 5.649,-3.014 9.134,-3.014 3.294,0 6.024,1.035 8.378,3.108 2.249,1.888 3.463,4.207 3.569,6.874 h -25.27 c 0.365,-2.755 1.758,-5.077 4.189,-6.968 z"
       id="path8" />
    <path
       d="m 356.685,177.636 c -4.628,10.912 -9.463,14.624 -16.877,14.624 -1.27,0 -5.137,0 -5.137,0 v -10.098 h 4.155 c 2.551,0 4.922,-0.957 7.182,-6.175 2.26,-5.217 2.26,-5.217 2.26,-5.217 l -19.491,-48.111 h 11.582 l 13.842,34.648 14.217,-34.648 H 380 c -0.003,0 -18.554,43.746 -23.315,54.977 z"
       id="path10" />
    <path
       d="m 187.854,104.487 v 22.47 c -3.733,-3.347 -9.54,-5.337 -15.158,-5.337 -6.684,0 -12.333,2.355 -16.947,7.154 -4.519,4.709 -6.778,10.544 -6.778,17.607 0,7.063 2.259,12.898 6.778,17.701 4.614,4.709 10.263,7.063 16.947,7.063 7.712,0 12.583,-3.028 15.158,-5.403 v 4.368 h 11.298 v -65.623 z m -3.389,52.255 c -2.73,2.73 -6.214,4.144 -10.263,4.144 -4.049,0 -7.344,-1.414 -10.074,-4.144 -2.635,-2.73 -3.954,-6.214 -3.954,-10.358 0,-4.143 1.319,-7.627 3.954,-10.357 2.73,-2.73 6.025,-4.144 10.074,-4.144 4.049,0 7.533,1.414 10.263,4.144 2.824,2.73 4.238,6.214 4.238,10.357 0,4.144 -1.414,7.628 -4.238,10.358 z"
       id="path12" />
    <path
       d="m 311.212,121.719 c -8.582,0 -13.045,3.561 -16.101,6.989 -1.221,-2.33 -4.663,-6.989 -12.709,-6.989 -6.796,0 -10.806,3.435 -12.803,5.884 v -4.941 h -11.203 v 47.452 h 11.203 v -27.305 c 0,-6.403 3.955,-11.017 9.228,-11.017 5.368,0 8.474,4.049 8.474,10.544 v 27.774 h 11.203 v -27.304 c 0,-6.498 3.859,-11.018 9.414,-11.018 5.368,0 8.473,4.049 8.473,10.544 v 27.775 h 11.298 v -29.375 c 0,-12.372 -6.649,-19.013 -16.477,-19.013 z"
       id="path14" />
  </g>
</svg>
